# xmcd
#
# Track frame offsets:
#	182
#	10050
#	24602
#	36617
#	50055
#	60492
#	71760
#	83120
#	94092
#	106122
#	119910
#	131947
#
# Disc length: 1910
#
# Revision: 1
# Processed by: cddbd v1.5.1PL0 Copyright (c) Steve Scherf et al.
# Submitted via: CDex 1.40Release
# Normalized: r0:DSETVAR1,TDELIM( - )
#
DISCID=ad07740c
DTITLE=Various Artist - Country and Western Club Vol. 6
DYEAR=1900
DGENRE=Country
TTITLE0=Johnny Cash - I Forgot To Remember
TTITLE1=Frankie Laine - Jezebel
TTITLE2=Carl Perkins - Forget Me
TTITLE3=Jim Reeves - Danny Boy
TTITLE4=Jerry Lee Lewis - Bonny B.
TTITLE5=Roger Miller - King Of The Road
TTITLE6=Marty Robbins - A White Sportscoat (And A Pink Carnation)
TTITLE7=Patsy Cline - I Can See An Angel
TTITLE8=Tennessee Ernie Ford - Smokey Mountain Boogie
TTITLE9=The Kingston Trio - Tom Dooley
TTITLE10=Conway Twitty - What Am I Living For
TTITLE11=Slim Whitman - Cattle Call
EXTD=ID3G: 2
EXTT0=
EXTT1=
EXTT2=
EXTT3=
EXTT4=
EXTT5=
EXTT6=
EXTT7=
EXTT8=
EXTT9=
EXTT10=
EXTT11=
PLAYORDER=
